<svg aria-hidden="true" style="position: absolute; width: 0; height: 0; overflow: hidden;" version="1.1" xmlns="http://www.w3.org/2000/svg" xmlns:xlink="http://www.w3.org/1999/xlink">
<defs>
<symbol id="icon-dollar-circle" viewBox="0 0 32 32">
<path fill="#fff" style="fill: var(--color1, #fff)" d="M17 21.227h0.867c0.867 0 1.587-0.773 1.587-1.707 0-1.16-0.413-1.387-1.093-1.627l-1.347-0.467v3.8h-0.013z"></path>
<path fill="#fff" style="fill: var(--color1, #fff)" d="M15.96 2.533c-7.36 0.027-13.32 6.013-13.293 13.373s6.013 13.32 13.373 13.293c7.36-0.027 13.32-6.013 13.293-13.373s-6.013-13.307-13.373-13.293zM19.013 16c1.040 0.36 2.44 1.133 2.44 3.52 0 2.053-1.613 3.707-3.587 3.707h-0.867v0.773c0 0.547-0.453 1-1 1s-1-0.453-1-1v-0.773h-0.48c-2.187 0-3.96-1.84-3.96-4.107 0-0.547 0.453-1 1-1s1 0.453 1 1c0 1.16 0.88 2.107 1.96 2.107h0.48v-4.507l-2.013-0.72c-1.040-0.36-2.44-1.133-2.44-3.52 0-2.053 1.613-3.707 3.587-3.707h0.867v-0.773c0-0.547 0.453-1 1-1s1 0.453 1 1v0.773h0.48c2.187 0 3.96 1.84 3.96 4.107 0 0.547-0.453 1-1 1s-1-0.453-1-1c0-1.16-0.88-2.107-1.96-2.107h-0.48v4.507l2.013 0.72z"></path>
<path fill="#fff" style="fill: var(--color1, #fff)" d="M12.56 12.493c0 1.16 0.413 1.387 1.093 1.627l1.347 0.467v-3.813h-0.867c-0.867 0-1.573 0.773-1.573 1.72z"></path>
</symbol>
<symbol id="icon-plus" viewBox="0 0 24 24">
<path d="M5 13h6v6c0 0.552 0.448 1 1 1s1-0.448 1-1v-6h6c0.552 0 1-0.448 1-1s-0.448-1-1-1h-6v-6c0-0.552-0.448-1-1-1s-1 0.448-1 1v6h-6c-0.552 0-1 0.448-1 1s0.448 1 1 1z"></path>
</symbol>

<symbol id="icon-bars" viewBox="0 0 53 32">
<path fill="none" stroke="#fff" style="stroke: var(--color1, #fff)" stroke-linejoin="miter" stroke-linecap="round" stroke-miterlimit="4" stroke-width="4" d="M2.667 29.333h48"></path>
<path fill="none" stroke="#fff" style="stroke: var(--color1, #fff)" stroke-linejoin="miter" stroke-linecap="round" stroke-miterlimit="4" stroke-width="4" d="M2.667 16h48"></path>
<path fill="none" stroke="#fff" style="stroke: var(--color1, #fff)" stroke-linejoin="miter" stroke-linecap="round" stroke-miterlimit="4" stroke-width="4" d="M2.667 2.667h48"></path>
</symbol>
<symbol id="icon-close" viewBox="0 0 20 20">
<path d="M10 8.586l-7.071-7.071-1.414 1.414 7.071 7.071-7.071 7.071 1.414 1.414 7.071-7.071 7.071 7.071 1.414-1.414-7.071-7.071 7.071-7.071-1.414-1.414-7.071 7.071z"></path>
</symbol>
<symbol id="icon-arrow-right" viewBox="0 0 24 24">
<path d="M11.293 5.707l5.293 5.293h-11.586c-0.552 0-1 0.448-1 1s0.448 1 1 1h11.586l-5.293 5.293c-0.391 0.391-0.391 1.024 0 1.414s1.024 0.391 1.414 0l7-7c0.092-0.092 0.166-0.202 0.217-0.324 0.101-0.245 0.101-0.521 0-0.766-0.049-0.118-0.121-0.228-0.217-0.324l-7-7c-0.391-0.391-1.024-0.391-1.414 0s-0.391 1.024 0 1.414z"></path>
</symbol>
<symbol id="icon-arrow-left" viewBox="0 0 24 24">
<path d="M12.707 18.293l-5.293-5.293h11.586c0.552 0 1-0.448 1-1s-0.448-1-1-1h-11.586l5.293-5.293c0.391-0.391 0.391-1.024 0-1.414s-1.024-0.391-1.414 0l-7 7c-0.096 0.096-0.168 0.206-0.217 0.324-0.051 0.122-0.076 0.253-0.076 0.383 0 0.256 0.098 0.512 0.293 0.707l7 7c0.391 0.391 1.024 0.391 1.414 0s0.391-1.024 0-1.414z"></path>
</symbol>
<symbol id="icon-Vector" viewBox="0 0 34 32">
<path fill="#f2b65c" style="fill: var(--color2, #f2b65c)" d="M17.067 25.97l-10.031 5.615 2.24-11.275-8.441-7.805 11.416-1.354 4.816-10.439 4.816 10.439 11.416 1.354-8.441 7.805 2.24 11.275-10.031-5.615z"></path>
</symbol>
<symbol id="icon-frame" viewBox="0 0 32 32">
<path fill="#fff" style="fill: var(--color1, #fff)" d="M16 2.667c-3.493 0-6.333 2.84-6.333 6.333 0 3.427 2.68 6.2 6.173 6.32 0.107-0.013 0.213-0.013 0.293 0 0.027 0 0.040 0 0.067 0 0.013 0 0.013 0 0.027 0 3.413-0.12 6.093-2.893 6.107-6.32 0-3.493-2.84-6.333-6.333-6.333z"></path>
<path fill="#fff" style="fill: var(--color1, #fff)" d="M22.773 18.867c-3.72-2.48-9.787-2.48-13.533 0-1.693 1.133-2.627 2.667-2.627 4.307s0.933 3.16 2.613 4.28c1.867 1.253 4.32 1.88 6.773 1.88s4.907-0.627 6.773-1.88c1.68-1.133 2.613-2.653 2.613-4.307-0.013-1.64-0.933-3.16-2.613-4.28z"></path>
</symbol>
<symbol id="icon-instagram" viewBox="0 0 24 24">
<path d="M7 1c-1.657 0-3.158 0.673-4.243 1.757s-1.757 2.586-1.757 4.243v10c0 1.657 0.673 3.158 1.757 4.243s2.586 1.757 4.243 1.757h10c1.657 0 3.158-0.673 4.243-1.757s1.757-2.586 1.757-4.243v-10c0-1.657-0.673-3.158-1.757-4.243s-2.586-1.757-4.243-1.757zM7 3h10c1.105 0 2.103 0.447 2.828 1.172s1.172 1.723 1.172 2.828v10c0 1.105-0.447 2.103-1.172 2.828s-1.723 1.172-2.828 1.172h-10c-1.105 0-2.103-0.447-2.828-1.172s-1.172-1.723-1.172-2.828v-10c0-1.105 0.447-2.103 1.172-2.828s1.723-1.172 2.828-1.172zM16.989 11.223c-0.15-0.972-0.571-1.857-1.194-2.567-0.754-0.861-1.804-1.465-3.009-1.644-0.464-0.074-0.97-0.077-1.477-0.002-1.366 0.202-2.521 0.941-3.282 1.967s-1.133 2.347-0.93 3.712 0.941 2.521 1.967 3.282 2.347 1.133 3.712 0.93 2.521-0.941 3.282-1.967 1.133-2.347 0.93-3.712zM15.011 11.517c0.122 0.82-0.1 1.609-0.558 2.227s-1.15 1.059-1.969 1.18-1.609-0.1-2.227-0.558-1.059-1.15-1.18-1.969 0.1-1.609 0.558-2.227 1.15-1.059 1.969-1.18c0.313-0.046 0.615-0.042 0.87-0.002 0.74 0.11 1.366 0.47 1.818 0.986 0.375 0.428 0.63 0.963 0.72 1.543zM17.5 7.5c0.552 0 1-0.448 1-1s-0.448-1-1-1-1 0.448-1 1 0.448 1 1 1z"></path>
</symbol>
<symbol id="icon-check" viewBox="0 0 24 24">
<path d="M19.293 5.293l-10.293 10.293-4.293-4.293c-0.391-0.391-1.024-0.391-1.414 0s-0.391 1.024 0 1.414l5 5c0.391 0.391 1.024 0.391 1.414 0l11-11c0.391-0.391 0.391-1.024 0-1.414s-1.024-0.391-1.414 0z"></path>
</symbol>
</defs>
</svg>
